<?xml version="1.0" encoding="utf-8"?>
<!-- Generator: Adobe Illustrator 27.5.0, SVG Export Plug-In . SVG Version: 6.00 Build 0)  -->
<svg version="1.1" xmlns="http://www.w3.org/2000/svg" xmlns:xlink="http://www.w3.org/1999/xlink" x="0px" y="0px"
	 viewBox="0 0 841.89 566.929" style="enable-background:new 0 0 841.89 566.929;" xml:space="preserve">
<g id="BG">
	<rect y="0" style="fill:#FFFFFF;" width="841.89" height="566.929"/>
</g>
<g id="graphics">
	<g>
		<path style="fill:#99A7AA;" d="M296.216,465.81h11.565c0.659,0,1.276,0.126,1.852,0.378c0.575,0.251,1.078,0.595,1.509,1.03
			c0.43,0.436,0.771,0.941,1.022,1.517c0.251,0.576,0.377,1.188,0.377,1.836v2.095c0,0.659-0.126,1.276-0.377,1.852
			c-0.252,0.576-0.596,1.079-1.031,1.509c-0.436,0.431-0.941,0.771-1.517,1.023c-0.575,0.251-1.188,0.377-1.835,0.377h-11.565
			V465.81z M311.266,470.536c0-0.469-0.092-0.913-0.276-1.332c-0.185-0.419-0.436-0.785-0.754-1.098
			c-0.318-0.314-0.69-0.561-1.114-0.746c-0.425-0.185-0.872-0.276-1.341-0.276h-10.291v9.067h10.324c0.47,0,0.913-0.093,1.332-0.277
			c0.419-0.184,0.785-0.436,1.099-0.754c0.313-0.318,0.561-0.688,0.745-1.107c0.185-0.419,0.276-0.868,0.276-1.349V470.536z"/>
		<path style="fill:#99A7AA;" d="M315.238,477.425V465.81h1.273v11.615H315.238z"/>
		<path style="fill:#99A7AA;" d="M321.088,476.034c-0.436-0.437-0.779-0.941-1.031-1.518c-0.251-0.575-0.377-1.192-0.377-1.852
			v-2.095c0-0.648,0.126-1.263,0.377-1.844c0.252-0.581,0.592-1.087,1.023-1.518c0.43-0.43,0.935-0.771,1.517-1.022
			c0.581-0.252,1.201-0.378,1.86-0.378h9.788v1.274h-9.788c-0.48,0-0.933,0.092-1.357,0.276s-0.796,0.433-1.114,0.746
			c-0.318,0.313-0.57,0.679-0.754,1.098c-0.185,0.419-0.277,0.869-0.277,1.349v2.112c0,0.469,0.093,0.916,0.277,1.341
			c0.184,0.425,0.433,0.796,0.745,1.114c0.313,0.318,0.679,0.57,1.098,0.754c0.419,0.184,0.869,0.277,1.35,0.277h8.548v-3.704
			h-7.492v-1.274h8.766v6.252h-9.788c-0.659,0-1.279-0.126-1.86-0.377C322.015,476.796,321.512,476.458,321.088,476.034z"/>
		<path style="fill:#99A7AA;" d="M337.479,477.425V465.81h1.273v11.615H337.479z"/>
		<path style="fill:#99A7AA;" d="M354.289,468.709h-11.095v3.939c0,0.491,0.089,0.946,0.268,1.365
			c0.179,0.419,0.431,0.785,0.755,1.099c0.323,0.324,0.695,0.578,1.114,0.762c0.419,0.184,0.869,0.277,1.35,0.277h9.788v1.273
			h-9.788c-0.66,0-1.277-0.126-1.853-0.377c-0.575-0.252-1.081-0.595-1.517-1.031c-0.425-0.424-0.763-0.924-1.014-1.5
			c-0.252-0.575-0.377-1.198-0.377-1.868v-6.839h1.273v1.626h11.095V468.709z"/>
		<path style="fill:#99A7AA;" d="M363.039,477.425c-0.761,0-1.447-0.192-2.062-0.578c-0.615-0.386-1.067-0.908-1.358-1.567
			c-0.201-0.435-0.301-0.899-0.301-1.391c0-0.503,0.098-0.97,0.293-1.399c0.195-0.431,0.461-0.805,0.796-1.123
			c0.335-0.318,0.724-0.57,1.165-0.755c0.441-0.184,0.907-0.276,1.399-0.276h9.989v-0.787c0-0.336-0.067-0.654-0.201-0.956
			c-0.134-0.302-0.316-0.561-0.545-0.779c-0.229-0.218-0.492-0.393-0.788-0.527c-0.296-0.135-0.611-0.201-0.946-0.201h-8.431v-1.274
			h8.431c0.514,0,1,0.099,1.458,0.294c0.458,0.195,0.855,0.464,1.189,0.805c0.336,0.341,0.603,0.737,0.805,1.189
			c0.201,0.452,0.302,0.936,0.302,1.45v7.893L363.039,477.425z M361.664,472.012c-0.335,0.212-0.598,0.48-0.787,0.804
			c-0.191,0.324-0.285,0.682-0.285,1.073c0,0.324,0.064,0.623,0.192,0.896c0.129,0.273,0.302,0.511,0.52,0.712
			s0.47,0.36,0.755,0.478c0.284,0.118,0.589,0.177,0.913,0.177h9.989v-4.542h-9.922c-0.258,0-0.503,0.036-0.738,0.108
			C362.066,471.791,361.854,471.889,361.664,472.012z"/>
		<path style="fill:#99A7AA;" d="M378.742,465.81v6.839c0,0.491,0.09,0.946,0.268,1.365c0.179,0.419,0.43,0.785,0.754,1.099
			c0.324,0.324,0.696,0.578,1.115,0.762c0.419,0.184,0.868,0.277,1.349,0.277h9.788v1.273h-9.788c-0.659,0-1.276-0.126-1.851-0.377
			c-0.576-0.252-1.081-0.595-1.518-1.031c-0.424-0.424-0.762-0.924-1.014-1.5c-0.251-0.575-0.377-1.198-0.377-1.868v-6.839H378.742z
			"/>
		<path style="fill:#99A7AA;" d="M399.995,477.425v-1.273h11.078c0.268,0,0.52-0.051,0.754-0.151c0.234-0.1,0.441-0.24,0.62-0.419
			c0.179-0.179,0.318-0.386,0.419-0.62c0.101-0.234,0.151-0.486,0.151-0.754c0-0.269-0.051-0.522-0.151-0.763
			c-0.101-0.24-0.237-0.45-0.41-0.629c-0.174-0.179-0.381-0.318-0.62-0.419c-0.241-0.101-0.495-0.15-0.763-0.15h-8.497
			c-0.437,0-0.85-0.084-1.24-0.252c-0.392-0.167-0.735-0.397-1.031-0.686c-0.296-0.291-0.528-0.632-0.695-1.023
			c-0.168-0.392-0.252-0.811-0.252-1.257c0-0.447,0.084-0.869,0.252-1.266c0.167-0.396,0.397-0.74,0.687-1.031
			c0.291-0.29,0.632-0.522,1.022-0.695c0.392-0.173,0.81-0.26,1.258-0.26h11.078v1.273h-11.078c-0.28,0-0.534,0.054-0.763,0.159
			c-0.229,0.106-0.431,0.246-0.603,0.42c-0.174,0.173-0.311,0.377-0.411,0.611c-0.101,0.234-0.156,0.486-0.167,0.754
			c0.044,0.56,0.245,1.028,0.604,1.408c0.357,0.38,0.804,0.569,1.341,0.569h8.497c0.446,0,0.865,0.084,1.257,0.252
			c0.391,0.167,0.731,0.397,1.022,0.688c0.29,0.29,0.52,0.631,0.687,1.022c0.168,0.392,0.252,0.81,0.252,1.258
			c0,0.446-0.084,0.865-0.252,1.257c-0.167,0.391-0.397,0.734-0.687,1.03c-0.291,0.297-0.632,0.528-1.022,0.696
			c-0.392,0.167-0.811,0.251-1.257,0.251H399.995z"/>
		<path style="fill:#99A7AA;" d="M421.815,477.425c-0.659,0-1.276-0.126-1.852-0.377c-0.575-0.252-1.078-0.592-1.509-1.023
			c-0.43-0.43-0.77-0.933-1.022-1.509c-0.251-0.575-0.377-1.192-0.377-1.852v-2.095c0-0.648,0.126-1.263,0.377-1.844
			c0.252-0.581,0.593-1.087,1.022-1.518c0.431-0.43,0.934-0.771,1.509-1.022c0.575-0.252,1.192-0.378,1.852-0.378h8.615
			c0.659,0,1.279,0.126,1.86,0.378c0.581,0.251,1.087,0.592,1.517,1.022c0.431,0.431,0.772,0.936,1.022,1.518
			c0.252,0.581,0.377,1.195,0.377,1.844v2.095c0,0.659-0.125,1.276-0.377,1.852c-0.251,0.576-0.592,1.079-1.022,1.509
			c-0.43,0.431-0.935,0.771-1.517,1.023c-0.581,0.251-1.201,0.377-1.86,0.377H421.815z M418.33,472.665
			c0,0.48,0.092,0.93,0.276,1.349c0.185,0.419,0.436,0.788,0.754,1.107c0.318,0.318,0.688,0.57,1.106,0.754
			c0.419,0.184,0.868,0.277,1.349,0.277h8.615c0.48,0,0.933-0.093,1.357-0.277c0.425-0.184,0.796-0.436,1.114-0.754
			c0.318-0.318,0.57-0.688,0.755-1.107c0.185-0.419,0.276-0.868,0.276-1.349v-2.095c0-0.48-0.092-0.931-0.276-1.35
			c-0.185-0.419-0.436-0.788-0.755-1.106c-0.318-0.318-0.689-0.569-1.114-0.754s-0.877-0.276-1.357-0.276h-8.615
			c-0.48,0-0.93,0.092-1.349,0.276c-0.419,0.185-0.788,0.435-1.106,0.754c-0.318,0.318-0.569,0.688-0.754,1.106
			c-0.185,0.419-0.276,0.869-0.276,1.35V472.665z"/>
		<path style="fill:#99A7AA;" d="M439.247,465.81v6.839c0,0.491,0.089,0.946,0.267,1.365c0.179,0.419,0.431,0.785,0.755,1.099
			c0.323,0.324,0.695,0.578,1.114,0.762c0.419,0.184,0.868,0.277,1.349,0.277h9.788v1.273h-9.788c-0.659,0-1.276-0.126-1.852-0.377
			c-0.575-0.252-1.081-0.595-1.517-1.031c-0.425-0.424-0.763-0.924-1.015-1.5c-0.251-0.575-0.377-1.198-0.377-1.868v-6.839H439.247z
			"/>
		<path style="fill:#99A7AA;" d="M458.973,477.425c-0.659,0-1.276-0.126-1.852-0.377c-0.575-0.252-1.078-0.592-1.509-1.023
			c-0.43-0.43-0.77-0.935-1.022-1.517c-0.251-0.581-0.377-1.201-0.377-1.86v-6.839h1.274v6.839c0,0.469,0.092,0.916,0.276,1.341
			c0.184,0.425,0.433,0.796,0.746,1.114c0.313,0.318,0.679,0.572,1.098,0.763c0.419,0.19,0.863,0.285,1.332,0.285h8.279V465.81
			h1.274v11.615H458.973z"/>
		<path style="fill:#99A7AA;" d="M483.862,468.709h-11.095v3.939c0,0.491,0.089,0.946,0.268,1.365
			c0.179,0.419,0.431,0.785,0.755,1.099c0.323,0.324,0.695,0.578,1.114,0.762c0.419,0.184,0.868,0.277,1.349,0.277h9.788v1.273
			h-9.788c-0.659,0-1.276-0.126-1.852-0.377c-0.575-0.252-1.081-0.595-1.517-1.031c-0.425-0.424-0.763-0.924-1.015-1.5
			c-0.251-0.575-0.377-1.198-0.377-1.868v-6.839h1.274v1.626h11.095V468.709z"/>
		<path style="fill:#99A7AA;" d="M488.974,477.425V465.81h1.274v11.615H488.974z"/>
		<path style="fill:#99A7AA;" d="M498.175,477.425c-0.659,0-1.276-0.126-1.852-0.377c-0.575-0.252-1.078-0.592-1.509-1.023
			c-0.43-0.43-0.771-0.933-1.022-1.509c-0.251-0.575-0.377-1.192-0.377-1.852v-2.095c0-0.648,0.126-1.263,0.377-1.844
			c0.252-0.581,0.593-1.087,1.022-1.518c0.431-0.43,0.934-0.771,1.509-1.022c0.575-0.252,1.192-0.378,1.852-0.378h8.615
			c0.659,0,1.279,0.126,1.86,0.378c0.581,0.251,1.087,0.592,1.517,1.022c0.431,0.431,0.771,0.936,1.022,1.518
			c0.252,0.581,0.377,1.195,0.377,1.844v2.095c0,0.659-0.125,1.276-0.377,1.852c-0.251,0.576-0.592,1.079-1.022,1.509
			c-0.43,0.431-0.936,0.771-1.517,1.023c-0.581,0.251-1.201,0.377-1.86,0.377H498.175z M494.689,472.665
			c0,0.48,0.092,0.93,0.276,1.349c0.185,0.419,0.436,0.788,0.754,1.107c0.318,0.318,0.688,0.57,1.107,0.754
			c0.419,0.184,0.868,0.277,1.349,0.277h8.615c0.48,0,0.933-0.093,1.357-0.277c0.425-0.184,0.796-0.436,1.114-0.754
			c0.318-0.318,0.57-0.688,0.755-1.107c0.185-0.419,0.276-0.868,0.276-1.349v-2.095c0-0.48-0.092-0.931-0.276-1.35
			c-0.185-0.419-0.437-0.788-0.755-1.106c-0.318-0.318-0.689-0.569-1.114-0.754s-0.877-0.276-1.357-0.276h-8.615
			c-0.48,0-0.93,0.092-1.349,0.276c-0.419,0.185-0.788,0.435-1.107,0.754c-0.318,0.318-0.569,0.688-0.754,1.106
			c-0.185,0.419-0.276,0.869-0.276,1.35V472.665z"/>
		<path style="fill:#99A7AA;" d="M523.852,465.81c0.648,0,1.262,0.126,1.843,0.378c0.581,0.251,1.087,0.592,1.518,1.022
			c0.43,0.431,0.771,0.936,1.023,1.518c0.251,0.581,0.377,1.201,0.377,1.86v6.838h-1.274v-6.838c0-0.47-0.092-0.916-0.276-1.341
			c-0.184-0.425-0.433-0.797-0.746-1.115c-0.313-0.318-0.679-0.572-1.098-0.763c-0.419-0.189-0.863-0.284-1.332-0.284h-8.279v10.341
			h-1.274V465.81H523.852z"/>
		<path style="fill:#99A7AA;" d="M531.377,477.425v-1.273h11.079c0.267,0,0.519-0.051,0.754-0.151c0.234-0.1,0.441-0.24,0.62-0.419
			c0.179-0.179,0.318-0.386,0.419-0.62c0.101-0.234,0.151-0.486,0.151-0.754c0-0.269-0.051-0.522-0.151-0.763
			c-0.101-0.24-0.237-0.45-0.41-0.629c-0.174-0.179-0.381-0.318-0.62-0.419c-0.241-0.101-0.495-0.15-0.763-0.15h-8.498
			c-0.436,0-0.849-0.084-1.24-0.252c-0.391-0.167-0.734-0.397-1.03-0.686c-0.297-0.291-0.528-0.632-0.695-1.023
			c-0.168-0.392-0.252-0.811-0.252-1.257c0-0.447,0.084-0.869,0.252-1.266c0.167-0.396,0.396-0.74,0.687-1.031
			c0.291-0.29,0.631-0.522,1.022-0.695c0.391-0.173,0.81-0.26,1.257-0.26h11.079v1.273h-11.079c-0.279,0-0.533,0.054-0.763,0.159
			c-0.229,0.106-0.43,0.246-0.603,0.42c-0.174,0.173-0.311,0.377-0.411,0.611c-0.1,0.234-0.156,0.486-0.168,0.754
			c0.045,0.56,0.246,1.028,0.604,1.408c0.357,0.38,0.805,0.569,1.341,0.569h8.498c0.446,0,0.865,0.084,1.257,0.252
			c0.391,0.167,0.731,0.397,1.023,0.688c0.29,0.29,0.519,0.631,0.686,1.022c0.168,0.392,0.252,0.81,0.252,1.258
			c0,0.446-0.084,0.865-0.252,1.257c-0.167,0.391-0.396,0.734-0.686,1.03c-0.291,0.297-0.632,0.528-1.023,0.696
			c-0.392,0.167-0.811,0.251-1.257,0.251H531.377z"/>
	</g>
	<g>
		<g>
			<path style="fill:#888A8A;" d="M318.958,446.925c-0.62,0.62-1.372,0.93-2.257,0.93c-0.886,0-1.638-0.309-2.257-0.93
				c-0.62-0.619-0.929-1.371-0.929-2.257v-8.098h-39.227v8.098c0,0.886-0.31,1.638-0.929,2.257c-0.62,0.62-1.372,0.93-2.257,0.93
				c-0.886,0-1.638-0.309-2.257-0.93c-0.62-0.619-0.929-1.371-0.929-2.257v-22.566c0-0.885,0.309-1.637,0.929-2.257
				c0.619-0.619,1.371-0.929,2.257-0.929c0.885,0,1.637,0.309,2.257,0.929c0.619,0.62,0.929,1.372,0.929,2.257v8.098h39.227v-8.098
				c0-0.885,0.309-1.637,0.929-2.257c0.619-0.619,1.371-0.929,2.257-0.929c0.885,0,1.637,0.309,2.257,0.929
				c0.619,0.62,0.929,1.372,0.929,2.257v22.566C319.887,445.554,319.577,446.306,318.958,446.925z"/>
			<path style="fill:#888A8A;" d="M333.967,446.925c-0.62,0.62-1.372,0.93-2.257,0.93c-0.886,0-1.638-0.309-2.257-0.93
				c-0.62-0.619-0.929-1.371-0.929-2.257v-22.566c0-0.885,0.309-1.637,0.929-2.257c0.619-0.619,1.371-0.929,2.257-0.929
				c0.885,0,1.637,0.309,2.257,0.929c0.619,0.62,0.929,1.372,0.929,2.257v22.566C334.895,445.554,334.586,446.306,333.967,446.925z"
				/>
			<path style="fill:#888A8A;" d="M392.64,419.845c0.619,0.62,0.929,1.372,0.929,2.257c0,0.886-0.31,1.638-0.929,2.257
				c-0.62,0.62-1.372,0.929-2.257,0.929h-19.646v19.381c0,0.886-0.31,1.638-0.929,2.257c-0.62,0.62-1.372,0.93-2.257,0.93
				c-0.886,0-1.638-0.309-2.257-0.93c-0.62-0.619-0.929-1.371-0.929-2.257v-19.381h-19.912c-0.797-0.088-1.483-0.431-2.058-1.028
				c-0.575-0.598-0.862-1.316-0.862-2.157c0-0.885,0.309-1.637,0.929-2.257c0.619-0.619,1.371-0.929,2.257-0.929h45.664
				C391.268,418.916,392.02,419.226,392.64,419.845z"/>
			<path style="fill:#888A8A;" d="M400.205,422.102c0-0.885,0.309-1.637,0.93-2.257c0.619-0.619,1.37-0.929,2.256-0.929h47.058
				c0.885,0,1.637,0.309,2.257,0.929c0.619,0.62,0.93,1.372,0.93,2.257c0,0.886-0.311,1.638-0.93,2.257
				c-0.62,0.62-1.372,0.929-2.257,0.929h-47.058c-0.886,0-1.637-0.309-2.256-0.929C400.514,423.739,400.205,422.987,400.205,422.102
				z M408.303,447.854c-0.974,0-1.948-0.21-2.921-0.631c-0.974-0.42-1.836-1.006-2.588-1.759c-0.753-0.752-1.372-1.659-1.858-2.722
				c-0.487-1.061-0.73-2.257-0.73-3.584v-5.974c0-1.194,0.342-1.991,1.028-2.39c0.685-0.397,1.76-0.597,3.22-0.597h44.535
				c0.885,0,1.637,0.309,2.257,0.929c0.619,0.62,0.93,1.372,0.93,2.257c0,0.886-0.31,1.638-0.93,2.257
				c-0.62,0.62-1.372,0.929-2.257,0.929h-42.411v3.253c0,0.442,0.188,0.829,0.564,1.161s0.874,0.498,1.494,0.498h41.813
				c0.885,0,1.637,0.309,2.257,0.929c0.619,0.62,0.93,1.372,0.93,2.257c0,0.886-0.311,1.638-0.93,2.257
				c-0.62,0.62-1.372,0.93-2.257,0.93H408.303z"/>
			<path style="fill:#888A8A;" d="M460.271,433.385c0-1.681,0.276-3.373,0.83-5.077c0.553-1.703,1.36-3.253,2.423-4.647
				c1.061-1.394,2.345-2.532,3.85-3.418c1.503-0.885,3.207-1.327,5.11-1.327h38.695c0.884,0,1.636,0.309,2.256,0.929
				c0.619,0.62,0.93,1.372,0.93,2.257c0,0.886-0.31,1.638-0.93,2.257c-0.62,0.62-1.372,0.929-2.256,0.929h-37.302
				c-1.549,0-2.799,0.277-3.75,0.83c-0.952,0.554-1.704,1.228-2.257,2.024c-0.554,0.796-0.929,1.671-1.128,2.621
				c-0.199,0.952-0.299,1.826-0.299,2.622c0,0.797,0.1,1.671,0.299,2.622c0.199,0.952,0.574,1.825,1.128,2.621
				c0.553,0.797,1.305,1.472,2.257,2.024c0.951,0.554,2.201,0.83,3.75,0.83h37.302c0.884,0,1.636,0.309,2.256,0.929
				c0.619,0.62,0.93,1.372,0.93,2.257c0,0.886-0.31,1.638-0.93,2.257c-0.62,0.62-1.372,0.93-2.256,0.93H471.82
				c-1.814,0-3.43-0.442-4.845-1.328c-1.417-0.885-2.622-2.024-3.617-3.418c-0.996-1.393-1.759-2.953-2.29-4.68
				C460.537,436.703,460.271,435.022,460.271,433.385z"/>
			<path style="fill:#888A8A;" d="M573.043,446.925c-0.62,0.62-1.372,0.93-2.257,0.93c-0.886,0-1.638-0.309-2.257-0.93
				c-0.62-0.619-0.93-1.371-0.93-2.257v-8.098h-39.226v8.098c0,0.886-0.311,1.638-0.93,2.257c-0.62,0.62-1.372,0.93-2.256,0.93
				c-0.886,0-1.638-0.309-2.257-0.93c-0.62-0.619-0.93-1.371-0.93-2.257v-22.566c0-0.885,0.309-1.637,0.93-2.257
				c0.619-0.619,1.371-0.929,2.257-0.929c0.884,0,1.636,0.309,2.256,0.929c0.619,0.62,0.93,1.372,0.93,2.257v8.098H567.6v-8.098
				c0-0.885,0.31-1.637,0.93-2.257c0.619-0.619,1.371-0.929,2.257-0.929c0.885,0,1.637,0.309,2.257,0.929
				c0.619,0.62,0.929,1.372,0.929,2.257v22.566C573.972,445.554,573.662,446.306,573.043,446.925z"/>
		</g>
	</g>
	<g>
		<linearGradient id="SVGID_1_" gradientUnits="userSpaceOnUse" x1="559.8217" y1="117.6345" x2="251.8223" y2="371.6343">
			<stop  offset="0" style="stop-color:#00FFA2"/>
			<stop  offset="1" style="stop-color:#00D0FF"/>
		</linearGradient>
		<path style="fill:url(#SVGID_1_);" d="M496.068,257.279L478.3,239.511c-6.715-6.714-17.6-6.714-24.314,0l-17.769,17.768
			c-3.461,3.462-5.139,8.034-5.03,12.57c1.987,36.177-16.375,54.48-54.376,55.059c-0.492-0.03-0.983-0.044-1.475-0.031
			c-36.175,1.986-54.478-16.372-55.059-54.368c0.031-0.494,0.044-0.989,0.032-1.483c-2.029-36.936,17.151-55.243,56.788-55.075
			c3.94-0.308,7.795-1.969,10.809-4.983l17.768-17.767c6.715-6.715,6.715-17.601,0-24.315l-17.768-17.768
			c-6.715-6.715-17.601-6.715-24.315,0l-17.768,17.768c-3.014,3.014-4.675,6.868-4.983,10.808
			c0.167,39.638-18.14,58.817-55.075,56.789c-4.536-0.108-9.107,1.568-12.57,5.031l-17.768,17.768
			c-6.714,6.714-6.714,17.601,0,24.315l17.768,17.768c3.296,3.296,7.981,5.322,13.222,4.999
			c37.796,0.575,56.16,18.688,54.402,54.478c-0.278,4.854,1.486,9.632,5.004,13.15l17.768,17.769
			c6.715,6.714,17.6,6.714,24.315-0.001l17.768-17.768c3.014-3.015,4.675-6.868,4.982-10.809
			c-0.167-39.637,18.141-58.816,55.075-56.788c4.537,0.108,9.107-1.568,12.569-5.03l17.769-17.768
			C502.783,274.88,502.783,263.994,496.068,257.279z"/>
		
			<linearGradient id="SVGID_00000181080725451056386170000009648900752544472200_" gradientUnits="userSpaceOnUse" x1="596.4136" y1="162.0055" x2="288.4138" y2="416.0056">
			<stop  offset="0" style="stop-color:#00FAFF"/>
			<stop  offset="1" style="stop-color:#009CFF"/>
		</linearGradient>
		<path style="fill:url(#SVGID_00000181080725451056386170000009648900752544472200_);" d="M345.821,281.594l17.768,17.768
			c6.714,6.715,17.6,6.715,24.315,0l17.768-17.768c3.461-3.462,5.139-8.033,5.03-12.569c-1.987-36.177,16.375-54.48,54.376-55.059
			c0.491,0.03,0.983,0.043,1.476,0.032c36.175-1.987,54.477,16.372,55.06,54.368c-0.031,0.494-0.045,0.989-0.033,1.483
			c2.03,36.936-17.15,55.243-56.787,55.075c-3.94,0.308-7.795,1.969-10.809,4.982l-17.769,17.768
			c-6.715,6.716-6.715,17.601,0,24.315l17.769,17.769c6.714,6.714,17.6,6.714,24.314,0l17.768-17.769
			c3.015-3.014,4.676-6.868,4.983-10.809c-0.168-39.637,18.14-58.816,55.074-56.788c4.537,0.108,9.108-1.568,12.57-5.031
			l17.769-17.768c6.714-6.714,6.714-17.6,0-24.315l-17.769-17.768c-3.296-3.296-7.981-5.322-13.222-4.999
			c-37.797-0.576-56.16-18.688-54.401-54.478c0.277-4.855-1.486-9.632-5.005-13.15L478.3,149.116
			c-6.716-6.715-17.601-6.715-24.314,0.001l-17.769,17.768c-3.014,3.014-4.675,6.868-4.982,10.808
			c0.167,39.638-18.141,58.817-55.075,56.789c-4.537-0.108-9.107,1.568-12.569,5.03l-17.768,17.768
			C339.107,263.994,339.107,274.88,345.821,281.594z"/>
	</g>
</g>
</svg>
